<svg xmlns="http://www.w3.org/2000/svg" zoomAndPan="magnify" viewBox="0 0 374.999991 374.999991" preserveAspectRatio="xMidYMid meet" version="1.2" baseProfile="tiny-ps" xml:space="preserve"><title>BeautyRise logo</title><defs><g/><linearGradient x1="134.679993" gradientTransform="matrix(0.772027, 0.000000000000000012, -0.000000000000000012, 0.770813, 22.14844, 132.271709)" y1="-170.347384" x2="134.679993" gradientUnits="userSpaceOnUse" y2="240.319693" id="56bd336e3b"><stop stop-opacity="1" stop-color="rgb(0%, 0%, 0%)" offset="0"/><stop stop-opacity="1" stop-color="rgb(0%, 0%, 0%)" offset="0.25"/><stop stop-opacity="1" stop-color="rgb(0%, 0%, 0%)" offset="0.3125"/><stop stop-opacity="1" stop-color="rgb(0%, 0%, 0%)" offset="0.34375"/><stop stop-opacity="1" stop-color="rgb(0%, 0%, 0%)" offset="0.359375"/><stop stop-opacity="1" stop-color="rgb(0%, 0%, 0%)" offset="0.367187"/><stop stop-opacity="1" stop-color="rgb(0.259399%, 0.259399%, 0.259399%)" offset="0.371094"/><stop stop-opacity="1" stop-color="rgb(0.518799%, 0.518799%, 0.518799%)" offset="0.375"/><stop stop-opacity="1" stop-color="rgb(1.022339%, 1.022339%, 1.022339%)" offset="0.378906"/><stop stop-opacity="1" stop-color="rgb(1.527405%, 1.527405%, 1.527405%)" offset="0.382812"/><stop stop-opacity="1" stop-color="rgb(2.030945%, 2.030945%, 2.030945%)" offset="0.386719"/><stop stop-opacity="1" stop-color="rgb(2.536011%, 2.536011%, 2.536011%)" offset="0.390625"/><stop stop-opacity="1" stop-color="rgb(3.039551%, 3.039551%, 3.039551%)" offset="0.394531"/><stop stop-opacity="1" stop-color="rgb(3.544617%, 3.544617%, 3.544617%)" offset="0.398438"/><stop stop-opacity="1" stop-color="rgb(4.049683%, 4.049683%, 4.049683%)" offset="0.402344"/><stop stop-opacity="1" stop-color="rgb(4.554749%, 4.554749%, 4.554749%)" offset="0.40625"/><stop stop-opacity="1" stop-color="rgb(5.058289%, 5.058289%, 5.058289%)" offset="0.410156"/><stop stop-opacity="1" stop-color="rgb(5.563354%, 5.563354%, 5.563354%)" offset="0.414062"/><stop stop-opacity="1" stop-color="rgb(6.066895%, 6.066895%, 6.066895%)" offset="0.417969"/><stop stop-opacity="1" stop-color="rgb(6.57196%, 6.57196%, 6.57196%)" offset="0.421875"/><stop stop-opacity="1" stop-color="rgb(7.0755%, 7.0755%, 7.0755%)" offset="0.425781"/><stop stop-opacity="1" stop-color="rgb(7.580566%, 7.580566%, 7.580566%)" offset="0.429688"/><stop stop-opacity="1" stop-color="rgb(8.084106%, 8.084106%, 8.084106%)" offset="0.433594"/><stop stop-opacity="1" stop-color="rgb(8.589172%, 8.589172%, 8.589172%)" offset="0.4375"/><stop stop-opacity="1" stop-color="rgb(9.092712%, 9.092712%, 9.092712%)" offset="0.441406"/><stop stop-opacity="1" stop-color="rgb(9.597778%, 9.597778%, 9.597778%)" offset="0.445312"/><stop stop-opacity="1" stop-color="rgb(10.101318%, 10.101318%, 10.101318%)" offset="0.449219"/><stop stop-opacity="1" stop-color="rgb(10.606384%, 10.606384%, 10.606384%)" offset="0.453125"/><stop stop-opacity="1" stop-color="rgb(11.11145%, 11.11145%, 11.11145%)" offset="0.457031"/><stop stop-opacity="1" stop-color="rgb(11.616516%, 11.616516%, 11.616516%)" offset="0.460938"/><stop stop-opacity="1" stop-color="rgb(12.120056%, 12.120056%, 12.120056%)" offset="0.464844"/><stop stop-opacity="1" stop-color="rgb(12.625122%, 12.625122%, 12.625122%)" offset="0.46875"/><stop stop-opacity="1" stop-color="rgb(13.128662%, 13.128662%, 13.128662%)" offset="0.472656"/><stop stop-opacity="1" stop-color="rgb(13.633728%, 13.633728%, 13.633728%)" offset="0.476562"/><stop stop-opacity="1" stop-color="rgb(14.137268%, 14.137268%, 14.137268%)" offset="0.480469"/><stop stop-opacity="1" stop-color="rgb(14.642334%, 14.642334%, 14.642334%)" offset="0.484375"/><stop stop-opacity="1" stop-color="rgb(15.145874%, 15.145874%, 15.145874%)" offset="0.488281"/><stop stop-opacity="1" stop-color="rgb(15.65094%, 15.65094%, 15.65094%)" offset="0.492188"/><stop stop-opacity="1" stop-color="rgb(16.15448%, 16.15448%, 16.15448%)" offset="0.496094"/><stop stop-opacity="1" stop-color="rgb(16.659546%, 16.659546%, 16.659546%)" offset="0.5"/><stop stop-opacity="1" stop-color="rgb(17.163086%, 17.163086%, 17.163086%)" offset="0.503906"/><stop stop-opacity="1" stop-color="rgb(17.668152%, 17.668152%, 17.668152%)" offset="0.507812"/><stop stop-opacity="1" stop-color="rgb(18.171692%, 18.171692%, 18.171692%)" offset="0.511719"/><stop stop-opacity="1" stop-color="rgb(18.676758%, 18.676758%, 18.676758%)" offset="0.515625"/><stop stop-opacity="1" stop-color="rgb(19.181824%, 19.181824%, 19.181824%)" offset="0.519531"/><stop stop-opacity="1" stop-color="rgb(19.68689%, 19.68689%, 19.68689%)" offset="0.523438"/><stop stop-opacity="1" stop-color="rgb(20.19043%, 20.19043%, 20.19043%)" offset="0.527344"/><stop stop-opacity="1" stop-color="rgb(20.695496%, 20.695496%, 20.695496%)" offset="0.53125"/><stop stop-opacity="1" stop-color="rgb(21.199036%, 21.199036%, 21.199036%)" offset="0.535156"/><stop stop-opacity="1" stop-color="rgb(21.704102%, 21.704102%, 21.704102%)" offset="0.539062"/><stop stop-opacity="1" stop-color="rgb(22.207642%, 22.207642%, 22.207642%)" offset="0.542969"/><stop stop-opacity="1" stop-color="rgb(22.712708%, 22.712708%, 22.712708%)" offset="0.546875"/><stop stop-opacity="1" stop-color="rgb(23.216248%, 23.216248%, 23.216248%)" offset="0.550781"/><stop stop-opacity="1" stop-color="rgb(23.721313%, 23.721313%, 23.721313%)" offset="0.554688"/><stop stop-opacity="1" stop-color="rgb(24.224854%, 24.224854%, 24.224854%)" offset="0.558594"/><stop stop-opacity="1" stop-color="rgb(24.729919%, 24.729919%, 24.729919%)" offset="0.5625"/><stop stop-opacity="1" stop-color="rgb(25.233459%, 25.233459%, 25.233459%)" offset="0.566406"/><stop stop-opacity="1" stop-color="rgb(25.738525%, 25.738525%, 25.738525%)" offset="0.570312"/><stop stop-opacity="1" stop-color="rgb(26.243591%, 26.243591%, 26.243591%)" offset="0.574219"/><stop stop-opacity="1" stop-color="rgb(26.748657%, 26.748657%, 26.748657%)" offset="0.578125"/><stop stop-opacity="1" stop-color="rgb(27.252197%, 27.252197%, 27.252197%)" offset="0.582031"/><stop stop-opacity="1" stop-color="rgb(27.757263%, 27.757263%, 27.757263%)" offset="0.585938"/><stop stop-opacity="1" stop-color="rgb(28.260803%, 28.260803%, 28.260803%)" offset="0.589844"/><stop stop-opacity="1" stop-color="rgb(28.765869%, 28.765869%, 28.765869%)" offset="0.59375"/><stop stop-opacity="1" stop-color="rgb(29.269409%, 29.269409%, 29.269409%)" offset="0.597656"/><stop stop-opacity="1" stop-color="rgb(29.774475%, 29.774475%, 29.774475%)" offset="0.601562"/><stop stop-opacity="1" stop-color="rgb(30.278015%, 30.278015%, 30.278015%)" offset="0.605469"/><stop stop-opacity="1" stop-color="rgb(30.783081%, 30.783081%, 30.783081%)" offset="0.609375"/><stop stop-opacity="1" stop-color="rgb(31.286621%, 31.286621%, 31.286621%)" offset="0.613281"/><stop stop-opacity="1" stop-color="rgb(31.791687%, 31.791687%, 31.791687%)" offset="0.617188"/><stop stop-opacity="1" stop-color="rgb(32.295227%, 32.295227%, 32.295227%)" offset="0.621094"/><stop stop-opacity="1" stop-color="rgb(32.800293%, 32.800293%, 32.800293%)" offset="0.625"/><stop stop-opacity="1" stop-color="rgb(33.06427%, 33.06427%, 33.06427%)" offset="0.628906"/><stop stop-opacity="1" stop-color="rgb(33.329773%, 33.329773%, 33.329773%)" offset="0.632813"/><stop stop-opacity="1" stop-color="rgb(33.329773%, 33.329773%, 33.329773%)" offset="0.640625"/><stop stop-opacity="1" stop-color="rgb(33.329773%, 33.329773%, 33.329773%)" offset="0.65625"/><stop stop-opacity="1" stop-color="rgb(33.329773%, 33.329773%, 33.329773%)" offset="0.6875"/><stop stop-opacity="1" stop-color="rgb(33.329773%, 33.329773%, 33.329773%)" offset="0.75"/><stop stop-opacity="1" stop-color="rgb(33.329773%, 33.329773%, 33.329773%)" offset="1"/></linearGradient></defs><rect x="-37.5" width="450" fill="#ffffff" y="-37.499999" height="449.999989" fill-opacity="1"/><rect x="-37.5" width="450" fill="#ffffff" y="-37.499999" height="449.999989" fill-opacity="1"/><g transform="matrix(1, 0, 0, 1, 232, 130)"><g clip-path="url(#24d3239797)"><g clip-path="url(#caaca98cfc)"><g fill="#ff751f" fill-opacity="1"><g transform="translate(5.523583, 94.608317)"><g><path d="M -3.328125 -8.421875 C -4.660156 -9.460938 -5.328125 -11.347656 -5.328125 -14.078125 C -5.328125 -15.265625 -5.175781 -16.632812 -4.875 -18.1875 C -3.988281 -23.207031 -1.515625 -31.039062 2.546875 -41.6875 C 3.804688 -45.007812 4.804688 -47.113281 5.546875 -48 C 6.285156 -48.882812 7.171875 -49.109375 8.203125 -48.671875 C 9.460938 -48.078125 10.054688 -47.1875 9.984375 -46 C 9.898438 -44.894531 9.007812 -42.085938 7.3125 -37.578125 C 5.6875 -33.367188 4.320312 -29.523438 3.21875 -26.046875 C 2.101562 -22.578125 1.660156 -20.769531 1.890625 -20.625 C 1.960938 -20.550781 2.253906 -20.992188 2.765625 -21.953125 C 3.285156 -22.910156 3.914062 -24.054688 4.65625 -25.390625 C 7.539062 -31.296875 10.421875 -36.429688 13.296875 -40.796875 C 16.109375 -45.148438 18.84375 -48.734375 21.5 -51.546875 C 24.3125 -54.578125 26.753906 -56.679688 28.828125 -57.859375 C 30.222656 -58.597656 31.441406 -59.003906 32.484375 -59.078125 C 33.078125 -59.078125 33.628906 -58.96875 34.140625 -58.75 C 35.691406 -58.082031 36.617188 -56.9375 36.921875 -55.3125 C 36.992188 -54.945312 37.03125 -54.539062 37.03125 -54.09375 C 37.03125 -52.6875 36.695312 -51.0625 36.03125 -49.21875 C 35.363281 -47.445312 34.769531 -46.265625 34.25 -45.671875 C 33.664062 -45.003906 32.960938 -44.671875 32.140625 -44.671875 C 30.890625 -44.671875 30.039062 -45.191406 29.59375 -46.234375 C 29.15625 -47.191406 29.226562 -48.375 29.8125 -49.78125 C 30.632812 -51.550781 30.304688 -51.84375 28.828125 -50.65625 C 27.347656 -49.550781 25.390625 -47.445312 22.953125 -44.34375 C 21.023438 -41.976562 19.066406 -39.171875 17.078125 -35.921875 C 15.078125 -32.585938 12.785156 -28.410156 10.203125 -23.390625 C 7.609375 -18.367188 5.613281 -14.710938 4.21875 -12.421875 C 2.8125 -10.128906 1.628906 -8.722656 0.671875 -8.203125 C -0.140625 -7.679688 -0.804688 -7.421875 -1.328125 -7.421875 L -1.4375 -7.421875 C -1.957031 -7.492188 -2.585938 -7.828125 -3.328125 -8.421875 Z M -3.328125 -8.421875 "/></g></g></g></g><g fill="#ff751f" fill-opacity="1"><g transform="translate(37.336069, 94.608317)"><g><path d="M -1 -9.984375 C -2.988281 -11.234375 -3.984375 -13.671875 -3.984375 -17.296875 C -3.984375 -17.890625 -3.945312 -18.59375 -3.875 -19.40625 C -3.4375 -24.132812 -1.628906 -30.671875 1.546875 -39.015625 C 2.285156 -40.867188 2.84375 -42.128906 3.21875 -42.796875 C 3.65625 -43.453125 4.097656 -43.859375 4.546875 -44.015625 C 5.140625 -44.234375 5.726562 -44.269531 6.3125 -44.125 L 6.984375 -43.90625 C 7.722656 -43.457031 8.164062 -42.828125 8.3125 -42.015625 C 8.382812 -41.640625 8.238281 -40.828125 7.875 -39.578125 C 7.5 -38.316406 7.015625 -36.800781 6.421875 -35.03125 C 5.023438 -31.332031 3.992188 -28.15625 3.328125 -25.5 C 2.585938 -22.90625 2.144531 -20.613281 2 -18.625 C 1.925781 -17.363281 1.925781 -16.550781 2 -16.1875 C 2.070312 -15.738281 2.253906 -15.515625 2.546875 -15.515625 C 2.992188 -15.441406 4.066406 -16.289062 5.765625 -18.0625 C 7.535156 -19.84375 9.382812 -21.84375 11.3125 -24.0625 C 12.34375 -25.3125 13.335938 -26.492188 14.296875 -27.609375 C 15.253906 -28.785156 16.101562 -29.851562 16.84375 -30.8125 C 17.957031 -32.289062 18.992188 -33.585938 19.953125 -34.703125 C 20.910156 -35.804688 21.460938 -36.394531 21.609375 -36.46875 C 22.867188 -36.84375 23.90625 -36.507812 24.71875 -35.46875 C 25.164062 -34.882812 25.390625 -34.296875 25.390625 -33.703125 C 25.390625 -33.179688 25.273438 -32.660156 25.046875 -32.140625 C 24.679688 -31.554688 24.054688 -30.632812 23.171875 -29.375 C 22.359375 -28.195312 21.359375 -26.867188 20.171875 -25.390625 C 18.546875 -23.171875 16.8125 -20.953125 14.96875 -18.734375 C 13.113281 -16.515625 11.671875 -14.960938 10.640625 -14.078125 C 8.128906 -11.859375 5.910156 -10.414062 3.984375 -9.75 C 2.066406 -9.082031 0.40625 -9.160156 -1 -9.984375 Z M 6.984375 -49.109375 C 6.316406 -49.847656 6.054688 -50.625 6.203125 -51.4375 C 6.429688 -52.25 7.023438 -52.914062 7.984375 -53.4375 C 8.867188 -53.945312 9.753906 -53.910156 10.640625 -53.328125 C 11.523438 -52.734375 11.96875 -51.878906 11.96875 -50.765625 C 11.96875 -49.660156 11.34375 -48.882812 10.09375 -48.4375 C 9.5 -48.21875 8.941406 -48.144531 8.421875 -48.21875 C 7.910156 -48.363281 7.429688 -48.660156 6.984375 -49.109375 Z M 6.984375 -49.109375 "/></g></g></g><g fill="#ff751f" fill-opacity="1"><g transform="translate(58.17491, 94.608317)"><g><path d="M 17.40625 -48.328125 C 17.925781 -47.441406 17.960938 -46.628906 17.515625 -45.890625 C 16.992188 -45.148438 15.441406 -43.671875 12.859375 -41.453125 C 9.460938 -38.578125 7.28125 -36.03125 6.3125 -33.8125 C 5.351562 -31.519531 5.46875 -29.300781 6.65625 -27.15625 C 7.019531 -26.5625 7.425781 -26.007812 7.875 -25.5 C 8.3125 -24.90625 8.679688 -24.535156 8.984375 -24.390625 C 9.648438 -24.015625 10.238281 -23.976562 10.75 -24.28125 C 11.34375 -24.5 13.707031 -25.9375 17.84375 -28.59375 C 21.6875 -31.039062 25.015625 -32.960938 27.828125 -34.359375 C 30.628906 -35.765625 32.515625 -36.429688 33.484375 -36.359375 C 34.367188 -36.210938 35.066406 -35.769531 35.578125 -35.03125 C 35.878906 -34.507812 36.03125 -34.03125 36.03125 -33.59375 C 36.03125 -33.289062 35.957031 -32.992188 35.8125 -32.703125 C 35.65625 -32.410156 35.097656 -31.929688 34.140625 -31.265625 C 33.179688 -30.597656 32.070312 -29.96875 30.8125 -29.375 C 28.96875 -28.414062 26.675781 -27.085938 23.9375 -25.390625 C 21.28125 -23.765625 18.21875 -21.84375 14.75 -19.625 C 14.300781 -19.320312 14.078125 -18.988281 14.078125 -18.625 C 14.003906 -18.25 14.191406 -17.546875 14.640625 -16.515625 C 15.078125 -15.265625 15.148438 -13.675781 14.859375 -11.75 C 14.628906 -9.832031 14.109375 -8.316406 13.296875 -7.203125 C 12.554688 -6.097656 11.523438 -5.023438 10.203125 -3.984375 C 8.796875 -2.878906 7.535156 -2.101562 6.421875 -1.65625 C 5.609375 -1.363281 4.757812 -1.21875 3.875 -1.21875 C 3.4375 -1.21875 2.992188 -1.253906 2.546875 -1.328125 C 1.140625 -1.546875 0.109375 -1.988281 -0.546875 -2.65625 C -1.734375 -3.769531 -2.328125 -5.140625 -2.328125 -6.765625 C -2.328125 -7.359375 -2.21875 -8.019531 -2 -8.75 C -1.40625 -11.269531 0.21875 -14.003906 2.875 -16.953125 C 3.394531 -17.546875 3.84375 -18.101562 4.21875 -18.625 C 4.582031 -19.0625 4.765625 -19.320312 4.765625 -19.40625 C 4.835938 -19.476562 4.691406 -19.804688 4.328125 -20.390625 C 3.953125 -20.910156 3.507812 -21.503906 3 -22.171875 C 1.59375 -24.015625 0.664062 -25.675781 0.21875 -27.15625 C -0.289062 -28.707031 -0.4375 -30.332031 -0.21875 -32.03125 C 0.0703125 -34.476562 1.144531 -36.992188 3 -39.578125 C 4.84375 -42.160156 7.535156 -44.820312 11.078125 -47.5625 C 12.117188 -48.375 13.007812 -49 13.75 -49.4375 C 14.34375 -49.8125 14.894531 -50 15.40625 -50 L 15.515625 -50 C 15.890625 -49.925781 16.222656 -49.738281 16.515625 -49.4375 C 16.804688 -49.21875 17.101562 -48.847656 17.40625 -48.328125 Z M 3.984375 -8.09375 C 3.984375 -7.644531 4.023438 -7.347656 4.109375 -7.203125 C 4.179688 -7.128906 4.398438 -7.164062 4.765625 -7.3125 C 5.054688 -7.382812 5.390625 -7.570312 5.765625 -7.875 C 6.203125 -8.164062 6.570312 -8.457031 6.875 -8.75 C 7.90625 -9.570312 8.609375 -10.679688 8.984375 -12.078125 C 9.421875 -13.484375 9.304688 -14.222656 8.640625 -14.296875 C 8.273438 -14.296875 7.425781 -13.410156 6.09375 -11.640625 C 4.769531 -9.867188 4.066406 -8.6875 3.984375 -8.09375 Z M 3.984375 -8.09375 "/></g></g></g><g fill="#ff751f" fill-opacity="1"><g transform="translate(89.987396, 94.608317)"><g><path d="M 14.96875 -44.453125 C 16.144531 -44.003906 17.03125 -43.335938 17.625 -42.453125 C 18.21875 -41.566406 18.515625 -40.382812 18.515625 -38.90625 C 18.515625 -36.175781 17.476562 -33.59375 15.40625 -31.15625 C 13.414062 -28.632812 10.535156 -26.453125 6.765625 -24.609375 C 5.804688 -24.085938 4.328125 -23.347656 2.328125 -22.390625 C 2.035156 -21.429688 2 -20.582031 2.21875 -19.84375 C 2.4375 -19.03125 2.769531 -18.363281 3.21875 -17.84375 C 3.507812 -17.40625 3.988281 -17.148438 4.65625 -17.078125 C 5.25 -16.921875 6.097656 -16.878906 7.203125 -16.953125 C 9.867188 -17.179688 13.082031 -18.476562 16.84375 -20.84375 C 20.613281 -23.207031 24.828125 -26.609375 29.484375 -31.046875 C 30.816406 -32.367188 32.035156 -33.507812 33.140625 -34.46875 C 34.253906 -35.4375 34.921875 -35.957031 35.140625 -36.03125 C 35.878906 -36.25 36.617188 -36.0625 37.359375 -35.46875 C 38.023438 -34.800781 38.359375 -34.023438 38.359375 -33.140625 C 38.359375 -32.472656 38.0625 -31.773438 37.46875 -31.046875 C 36.875 -30.304688 35.507812 -28.898438 33.375 -26.828125 C 27.601562 -21.066406 22.054688 -16.78125 16.734375 -13.96875 C 12.597656 -11.75 9.050781 -10.640625 6.09375 -10.640625 C 5.28125 -10.640625 4.46875 -10.75 3.65625 -10.96875 C 0.851562 -11.707031 -1.175781 -13.335938 -2.4375 -15.859375 C -3.25 -17.484375 -3.65625 -19.328125 -3.65625 -21.390625 C -3.65625 -22.578125 -3.546875 -23.835938 -3.328125 -25.171875 C -2.296875 -30.191406 -0.078125 -34.660156 3.328125 -38.578125 C 6.722656 -42.566406 9.972656 -44.597656 13.078125 -44.671875 L 14.078125 -44.671875 Z M 6.09375 -32.703125 C 5.351562 -31.441406 4.984375 -30.703125 4.984375 -30.484375 C 5.054688 -30.265625 5.578125 -30.410156 6.546875 -30.921875 C 8.171875 -31.734375 9.757812 -33.210938 11.3125 -35.359375 C 12.9375 -37.503906 13.226562 -38.578125 12.1875 -38.578125 C 11.820312 -38.578125 10.863281 -37.835938 9.3125 -36.359375 C 7.832031 -34.878906 6.757812 -33.660156 6.09375 -32.703125 Z M 6.09375 -32.703125 "/></g></g></g></g></g><g transform="matrix(1, 0, 0, 1, 0, 28)"><g clip-path="url(#e41ab765c2)"><g clip-path="url(#071b2546bd)"><g transform="matrix(1, 0, 0, 1, 0, 0)"><g clip-path="url(#80e6588104)"><g clip-path="url(#c68e4305b3)"><g mask="url(#a76f83e0ea)"><g transform="matrix(1, 0, 0, 1, 0, 0)"><g clip-path="url(#fc3a4a3578)"><g clip-path="url(#b474a6b26f)"><path fill="url(#56bd336e3b)" d="M 0 0.964844 L 0 317.511719 L 361.605469 317.511719 L 361.605469 0.964844 Z M 0 0.964844 " fill-rule="nonzero"/></g></g></g></g></g></g></g></g></g></g></svg>
